<?xml version="1.0" encoding="utf-8"?>
<!-- Generator: Adobe Illustrator 21.0.0, SVG Export Plug-In . SVG Version: 6.00 Build 0)  -->
<svg version="1.1" id="Layer_1" xmlns="http://www.w3.org/2000/svg" xmlns:xlink="http://www.w3.org/1999/xlink" x="0px" y="0px"
	 viewBox="0 0 45 45" style="enable-background:new 0 0 45 45;" xml:space="preserve">
<style type="text/css">
	.st0{fill:#333333;}
</style>
<g>
	<path class="st0" d="M21,20.6c-3.4-0.8-1.5-3.8,1.2-3.7c2.7,0,4,2.9,5.2,2.8s2.2-2,0.3-3.6c-1.6-1.4-3.7-2.2-6.9-1.9
		c-2.5,0.2-4.9,1.9-5.2,5.1s3.4,4.8,6.4,5.3c2.1,0.3,4.9,1.3,3.2,3.3c-1.6,1.8-4.5,0.7-5.3,0.2c-0.8-0.5-1.6-2.3-3.1-2.2
		c-1.5,0.1-2.2,2-0.4,3.7c1.6,1.5,3.3,2.4,7.1,2.2c3.7-0.2,7.1-3.5,5.7-6.7C28,21.8,24.4,21.5,21,20.6z"/>
	<path class="st0" d="M22.5,0C10.1,0,0,10.1,0,22.5S10.1,45,22.5,45S45,34.9,45,22.5S34.9,0,22.5,0z M28.3,35.2
		c-1.4,0-2.6-0.4-3.7-1.1c-0.7,0.1-1.4,0.2-2.1,0.2c-6.5,0-11.7-5.3-11.7-11.8c0-0.6,0-1.3,0.1-1.9c-0.7-1.1-1.1-2.4-1.1-3.9
		c0-3.9,3.1-7.1,7-7.1c1.4,0,2.7,0.4,3.8,1.1c0.6-0.1,1.2-0.2,1.9-0.2c6.5,0,11.7,5.3,11.7,11.8c0,0.5,0,1.1-0.1,1.6
		c0.8,1.1,1.2,2.5,1.2,4C35.2,32.1,32.1,35.2,28.3,35.2z"/>
</g>
</svg>
